# xmcd CD database file
#
# Track frame offsets:
#	150
#	17967
#	36771
#	53774
#	71780
#	90518
#	109629
#	128168
#	145519
#	162960
#	182902
#	201594
#
# Disc length: 2903 seconds
#
# Revision: 2
# Processed by: cddbd v1.5.1PL0 Copyright (c) Steve Scherf et al.
# Submitted via: CDex 1.51
#
DISCID=a70b550c
DTITLE=Joseph Fonseca - Escúchame
DYEAR=2002
DGENRE=Merengue
TTITLE0=Que Levante La Mano
TTITLE1=Porque Diablos Hemos Cambiado
TTITLE2=Acaríciame
TTITLE3=Escúchame
TTITLE4=Buscando Tus Besos
TTITLE5=Me Muero Por Ella
TTITLE6=Dame Una Razón
TTITLE7=Por Qué Tú
TTITLE8=Sueño Su Boca
TTITLE9=Porque Diablos Hemos Cambiado (Bachata)
TTITLE10=Por Qué Tú (Bachata)
TTITLE11=Que Levante La Mano (Bachata)
EXTD=YEAR: 2002
EXTT0=
EXTT1=
EXTT2=
EXTT3=
EXTT4=
EXTT5=
EXTT6=
EXTT7=
EXTT8=
EXTT9=
EXTT10=
EXTT11=
PLAYORDER=
